<mxfile host="app.diagrams.net" agent="Mozilla/5.0 (Windows NT 10.0; Win64; x64) AppleWebKit/537.36 (KHTML, like Gecko) Chrome/141.0.0.0 Safari/537.36 Edg/141.0.0.0" version="28.2.7">
  <diagram name="Copie de Page-1" id="jjgJFfTMiXDSPVupNeUj">
    <mxGraphModel dx="1657" dy="756" grid="1" gridSize="10" guides="1" tooltips="1" connect="1" arrows="1" fold="1" page="1" pageScale="1" pageWidth="827" pageHeight="1169" math="0" shadow="0">
      <root>
        <mxCell id="-pql0ICuQ1YIRjALvjxD-0" />
        <mxCell id="-pql0ICuQ1YIRjALvjxD-1" parent="-pql0ICuQ1YIRjALvjxD-0" />
        <mxCell id="-pql0ICuQ1YIRjALvjxD-2" style="edgeStyle=none;curved=1;rounded=0;orthogonalLoop=1;jettySize=auto;html=1;exitX=0.5;exitY=0;exitDx=0;exitDy=0;exitPerimeter=0;fontSize=12;startSize=8;endSize=8;" edge="1" parent="-pql0ICuQ1YIRjALvjxD-1">
          <mxGeometry relative="1" as="geometry">
            <mxPoint x="169" y="350" as="sourcePoint" />
            <mxPoint x="169" y="350" as="targetPoint" />
          </mxGeometry>
        </mxCell>
        <mxCell id="-pql0ICuQ1YIRjALvjxD-3" style="edgeStyle=orthogonalEdgeStyle;rounded=0;orthogonalLoop=1;jettySize=auto;html=1;exitX=0.5;exitY=1;exitDx=0;exitDy=0;exitPerimeter=0;" edge="1" parent="-pql0ICuQ1YIRjALvjxD-1" source="-pql0ICuQ1YIRjALvjxD-4" target="-pql0ICuQ1YIRjALvjxD-13">
          <mxGeometry relative="1" as="geometry" />
        </mxCell>
        <mxCell id="-pql0ICuQ1YIRjALvjxD-4" value="" style="shape=mxgraph.cisco.modems_and_phones.modem;sketch=0;html=1;pointerEvents=1;dashed=0;fillColor=#036897;strokeColor=#ffffff;strokeWidth=2;verticalLabelPosition=bottom;verticalAlign=top;align=center;outlineConnect=0;" vertex="1" parent="-pql0ICuQ1YIRjALvjxD-1">
          <mxGeometry x="331.5" y="260" width="77" height="27" as="geometry" />
        </mxCell>
        <mxCell id="-pql0ICuQ1YIRjALvjxD-5" value="" style="shape=mxgraph.cisco.modems_and_phones.cell_phone;sketch=0;html=1;pointerEvents=1;dashed=0;fillColor=#036897;strokeColor=#ffffff;strokeWidth=2;verticalLabelPosition=bottom;verticalAlign=top;align=center;outlineConnect=0;" vertex="1" parent="-pql0ICuQ1YIRjALvjxD-1">
          <mxGeometry x="122" y="487" width="34" height="58" as="geometry" />
        </mxCell>
        <mxCell id="-pql0ICuQ1YIRjALvjxD-6" value="" style="shape=mxgraph.cisco.computers_and_peripherals.macintosh;sketch=0;html=1;pointerEvents=1;dashed=0;fillColor=#036897;strokeColor=#ffffff;strokeWidth=2;verticalLabelPosition=bottom;verticalAlign=top;align=center;outlineConnect=0;" vertex="1" parent="-pql0ICuQ1YIRjALvjxD-1">
          <mxGeometry x="251" y="519" width="99" height="64" as="geometry" />
        </mxCell>
        <mxCell id="-pql0ICuQ1YIRjALvjxD-7" value="" style="shape=mxgraph.cisco.computers_and_peripherals.laptop;sketch=0;html=1;pointerEvents=1;dashed=0;fillColor=#036897;strokeColor=#ffffff;strokeWidth=2;verticalLabelPosition=bottom;verticalAlign=top;align=center;outlineConnect=0;" vertex="1" parent="-pql0ICuQ1YIRjALvjxD-1">
          <mxGeometry x="495.7" y="543" width="90" height="61" as="geometry" />
        </mxCell>
        <mxCell id="-pql0ICuQ1YIRjALvjxD-8" value="" style="shape=mxgraph.cisco.computers_and_peripherals.laptop;sketch=0;html=1;pointerEvents=1;dashed=0;fillColor=#036897;strokeColor=#ffffff;strokeWidth=2;verticalLabelPosition=bottom;verticalAlign=top;align=center;outlineConnect=0;" vertex="1" parent="-pql0ICuQ1YIRjALvjxD-1">
          <mxGeometry x="495.7" y="345.5" width="90" height="61" as="geometry" />
        </mxCell>
        <mxCell id="-pql0ICuQ1YIRjALvjxD-9" value="" style="html=1;verticalLabelPosition=bottom;align=center;labelBackgroundColor=#ffffff;verticalAlign=top;strokeWidth=2;strokeColor=#0080F0;shadow=0;dashed=0;shape=mxgraph.ios7.icons.wifi;pointerEvents=1" vertex="1" parent="-pql0ICuQ1YIRjALvjxD-1">
          <mxGeometry x="126.30000000000001" y="450" width="29.7" height="21" as="geometry" />
        </mxCell>
        <mxCell id="-pql0ICuQ1YIRjALvjxD-10" value="" style="sketch=0;pointerEvents=1;shadow=0;dashed=0;html=1;strokeColor=none;fillColor=#434445;aspect=fixed;labelPosition=center;verticalLabelPosition=bottom;verticalAlign=top;align=center;outlineConnect=0;shape=mxgraph.vvd.wi_fi;" vertex="1" parent="-pql0ICuQ1YIRjALvjxD-1">
          <mxGeometry x="414" y="230" width="50" height="50" as="geometry" />
        </mxCell>
        <mxCell id="-pql0ICuQ1YIRjALvjxD-11" value="" style="html=1;verticalLabelPosition=bottom;align=center;labelBackgroundColor=#ffffff;verticalAlign=top;strokeWidth=2;strokeColor=#0080F0;shadow=0;dashed=0;shape=mxgraph.ios7.icons.wifi;pointerEvents=1" vertex="1" parent="-pql0ICuQ1YIRjALvjxD-1">
          <mxGeometry x="534.7" y="510" width="29.7" height="21" as="geometry" />
        </mxCell>
        <mxCell id="-pql0ICuQ1YIRjALvjxD-12" value="" style="html=1;verticalLabelPosition=bottom;align=center;labelBackgroundColor=#ffffff;verticalAlign=top;strokeWidth=2;strokeColor=#0080F0;shadow=0;dashed=0;shape=mxgraph.ios7.icons.wifi;pointerEvents=1" vertex="1" parent="-pql0ICuQ1YIRjALvjxD-1">
          <mxGeometry x="545.7" y="315" width="29.7" height="21" as="geometry" />
        </mxCell>
        <mxCell id="-pql0ICuQ1YIRjALvjxD-13" value="" style="sketch=0;pointerEvents=1;shadow=0;dashed=0;html=1;strokeColor=none;fillColor=#434445;aspect=fixed;labelPosition=center;verticalLabelPosition=bottom;verticalAlign=top;align=center;outlineConnect=0;shape=mxgraph.vvd.ethernet_port;" vertex="1" parent="-pql0ICuQ1YIRjALvjxD-1">
          <mxGeometry x="293.5" y="489.5" width="29.5" height="29.5" as="geometry" />
        </mxCell>
        <mxCell id="-pql0ICuQ1YIRjALvjxD-14" value="" style="shape=mxgraph.cisco.modems_and_phones.cell_phone;sketch=0;html=1;pointerEvents=1;dashed=0;fillColor=#036897;strokeColor=#ffffff;strokeWidth=2;verticalLabelPosition=bottom;verticalAlign=top;align=center;outlineConnect=0;" vertex="1" parent="-pql0ICuQ1YIRjALvjxD-1">
          <mxGeometry x="62" y="485.5" width="34" height="58" as="geometry" />
        </mxCell>
        <mxCell id="-pql0ICuQ1YIRjALvjxD-15" value="" style="html=1;verticalLabelPosition=bottom;align=center;labelBackgroundColor=#ffffff;verticalAlign=top;strokeWidth=2;strokeColor=#0080F0;shadow=0;dashed=0;shape=mxgraph.ios7.icons.wifi;pointerEvents=1" vertex="1" parent="-pql0ICuQ1YIRjALvjxD-1">
          <mxGeometry x="66.3" y="450" width="29.7" height="21" as="geometry" />
        </mxCell>
        <mxCell id="-pql0ICuQ1YIRjALvjxD-16" style="edgeStyle=orthogonalEdgeStyle;rounded=0;orthogonalLoop=1;jettySize=auto;html=1;" edge="1" parent="-pql0ICuQ1YIRjALvjxD-1" source="-pql0ICuQ1YIRjALvjxD-17" target="-pql0ICuQ1YIRjALvjxD-4">
          <mxGeometry relative="1" as="geometry" />
        </mxCell>
        <mxCell id="-pql0ICuQ1YIRjALvjxD-17" value="" style="image;aspect=fixed;perimeter=ellipsePerimeter;html=1;align=center;shadow=0;dashed=0;spacingTop=3;image=img/lib/active_directory/internet_globe.svg;" vertex="1" parent="-pql0ICuQ1YIRjALvjxD-1">
          <mxGeometry x="340" y="110" width="60" height="60" as="geometry" />
        </mxCell>
        <mxCell id="-pql0ICuQ1YIRjALvjxD-18" value="INTERNET&lt;div&gt;&quot;WWW&quot;&lt;/div&gt;" style="rounded=0;whiteSpace=wrap;html=1;" vertex="1" parent="-pql0ICuQ1YIRjALvjxD-1">
          <mxGeometry x="420" y="110" width="120" height="60" as="geometry" />
        </mxCell>
        <mxCell id="-pql0ICuQ1YIRjALvjxD-19" value="ROUTEUR FAI&lt;div&gt;Lieu Salon&amp;nbsp;&lt;/div&gt;&lt;div&gt;192.168.1.1&lt;/div&gt;&lt;div&gt;&lt;span style=&quot;color: rgba(0, 0, 0, 0); font-family: monospace; font-size: 0px; text-align: start; text-wrap-mode: nowrap;&quot;&gt;1%3CmxGraphModel%3E%3Croot%3E%3CmxCell%20id%3D%220%22%2F%3E%3CmxCell%20id%3D%221%22%20parent%3D%220%22%2F%3E%3CmxCell%20id%3D%222%22%20value%3D%22INTERNET%26amp%3Bnbsp%3B%22%20style%3D%22rounded%3D0%3BwhiteSpace%3Dwrap%3Bhtml%3D1%3B%22%20vertex%3D%221%22%20parent%3D%221%22%3E%3CmxGeometry%20x%3D%22420%22%20y%3D%22110%22%20width%3D%22120%22%20height%3D%2260%22%20as%3D%22geometry%22%2F%3E%3C%2FmxCell%3E%3C%2Froot%3E%3C%2FmxGraphModel%3E1&lt;/span&gt;&lt;/div&gt;" style="rounded=0;whiteSpace=wrap;html=1;" vertex="1" parent="-pql0ICuQ1YIRjALvjxD-1">
          <mxGeometry x="203" y="243.5" width="120" height="60" as="geometry" />
        </mxCell>
        <mxCell id="-pql0ICuQ1YIRjALvjxD-20" value="PC GAMER&lt;div&gt;Lieu : Salon&lt;/div&gt;&lt;div&gt;192.168.1.10&lt;/div&gt;" style="rounded=0;whiteSpace=wrap;html=1;" vertex="1" parent="-pql0ICuQ1YIRjALvjxD-1">
          <mxGeometry x="230" y="602.5" width="120" height="60" as="geometry" />
        </mxCell>
        <mxCell id="-pql0ICuQ1YIRjALvjxD-21" value="PC 1&lt;div&gt;Lieu : Salon&lt;/div&gt;&lt;div&gt;192.168.1.11&lt;/div&gt;&lt;div&gt;&lt;br&gt;&lt;/div&gt;" style="rounded=0;whiteSpace=wrap;html=1;" vertex="1" parent="-pql0ICuQ1YIRjALvjxD-1">
          <mxGeometry x="508.4" y="611" width="101.6" height="59" as="geometry" />
        </mxCell>
        <mxCell id="-pql0ICuQ1YIRjALvjxD-22" value="PC 2&lt;div&gt;Lieu Chambre&lt;/div&gt;&lt;div&gt;192.168.1.10&lt;/div&gt;" style="rounded=0;whiteSpace=wrap;html=1;" vertex="1" parent="-pql0ICuQ1YIRjALvjxD-1">
          <mxGeometry x="512.7" y="423" width="97.3" height="67" as="geometry" />
        </mxCell>
        <mxCell id="-pql0ICuQ1YIRjALvjxD-23" value="PHONE 1&lt;div&gt;192.168.1.15&lt;/div&gt;" style="rounded=0;whiteSpace=wrap;html=1;" vertex="1" parent="-pql0ICuQ1YIRjALvjxD-1">
          <mxGeometry y="552" width="100" height="48" as="geometry" />
        </mxCell>
        <mxCell id="-pql0ICuQ1YIRjALvjxD-24" value="PHONE 2&lt;div&gt;192.168.1.16&lt;/div&gt;" style="rounded=0;whiteSpace=wrap;html=1;" vertex="1" parent="-pql0ICuQ1YIRjALvjxD-1">
          <mxGeometry x="111" y="552" width="79" height="48" as="geometry" />
        </mxCell>
        <mxCell id="89h3-FU57B6cAil4IR6H-1" value="TYPOLOGIE DE MON RESE&lt;span style=&quot;background-color: transparent; color: light-dark(rgb(0, 0, 0), rgb(255, 255, 255));&quot;&gt;AU :&lt;/span&gt;&lt;div&gt;&lt;div&gt;ETOILE&amp;nbsp;&lt;/div&gt;&lt;/div&gt;&lt;div&gt;192.168.1.0/24&lt;/div&gt;&lt;div&gt;Passerelle : 192.168.1.1&lt;/div&gt;&lt;div&gt;DNS : 192.168.1.1&lt;/div&gt;" style="rounded=0;whiteSpace=wrap;html=1;" vertex="1" parent="-pql0ICuQ1YIRjALvjxD-1">
          <mxGeometry x="30" y="90" width="250" height="100" as="geometry" />
        </mxCell>
      </root>
    </mxGraphModel>
  </diagram>
</mxfile>
